<svg xmlns="http://www.w3.org/2000/svg" xmlns:xlink="http://www.w3.org/1999/xlink" viewBox="0,0,256,256" width="16px" height="16px"><g fill="#ffffff" fill-rule="nonzero" stroke="none" stroke-width="1" stroke-linecap="butt" stroke-linejoin="miter" stroke-miterlimit="10" stroke-dasharray="" stroke-dashoffset="0" font-family="none" font-weight="none" font-size="none" text-anchor="none" style="mix-blend-mode: normal"><g transform="scale(16,16)"><path d="M6.49609,1c-0.82031,0 -1.49609,0.67578 -1.49609,1.49609v0.50391h-3v1h1v8.5c0,0.82813 0.67188,1.5 1.5,1.5h6c0.82813,0 1.5,-0.67187 1.5,-1.5v-8.5h1v-1h-3v-0.50391c0,-0.82031 -0.67578,-1.49609 -1.49609,-1.49609zM6.49609,2h2.00781c0.28125,0 0.49609,0.21484 0.49609,0.49609v0.50391h-3v-0.50391c0,-0.28125 0.21484,-0.49609 0.49609,-0.49609zM5,5h1v7h-1zM7,5h1v7h-1zM9,5h1v7h-1z"></path></g></g></svg>