<svg width="19" height="19" viewBox="0 0 19 19" fill="none" xmlns="http://www.w3.org/2000/svg">
<path d="M2.33252 16.7559H3.75752L13.5325 6.98086L12.1075 5.55586L2.33252 15.3309V16.7559ZM0.33252 18.7559V14.5059L13.5325 1.33086C13.7325 1.14753 13.9534 1.00586 14.195 0.905859C14.4367 0.805859 14.6909 0.755859 14.9575 0.755859C15.2242 0.755859 15.4825 0.805859 15.7325 0.905859C15.9825 1.00586 16.1992 1.15586 16.3825 1.35586L17.7575 2.75586C17.9575 2.93919 18.1034 3.15586 18.195 3.40586C18.2867 3.65586 18.3325 3.90586 18.3325 4.15586C18.3325 4.42253 18.2867 4.67669 18.195 4.91836C18.1034 5.16003 17.9575 5.38086 17.7575 5.58086L4.58252 18.7559H0.33252ZM12.8075 6.28086L12.1075 5.55586L13.5325 6.98086L12.8075 6.28086Z" fill="white"/>
</svg>
