<svg width="69" height="50" viewBox="0 0 69 50" fill="none" xmlns="http://www.w3.org/2000/svg">
<g clip-path="url(#clip0_5981_824)">
<path d="M53.9053 24.4068H40.0515C39.4477 24.4068 38.9578 23.9168 38.9578 23.3131C38.9578 22.7093 39.4477 22.2194 40.0515 22.2194H53.9053C54.509 22.2194 54.999 22.7093 54.999 23.3131C54.999 23.9168 54.509 24.4068 53.9053 24.4068Z" fill="white"/>
<path d="M48.4367 29.8754C48.1566 29.8754 47.8768 29.7688 47.6637 29.5547C47.2365 29.1272 47.2365 28.4345 47.6637 28.0073L52.3595 23.3117L47.6637 18.6159C47.2365 18.1887 47.2365 17.496 47.6637 17.0688C48.0912 16.6413 48.7838 16.6413 49.2111 17.0688L54.6796 22.5374C55.1069 22.9646 55.1069 23.6573 54.6796 24.0845L49.2111 29.5531C48.9967 29.7688 48.7168 29.8754 48.4367 29.8754Z" fill="white"/>
<path d="M31.6664 43.0001C31.3542 43.0001 31.0581 42.9563 30.7623 42.8645L21.9861 39.9406C20.792 39.5235 20 38.4108 20 37.1671V10.9179C20 9.30935 21.3081 8.00122 22.9167 8.00122C23.2285 8.00122 23.5247 8.04501 23.8208 8.13687L32.5967 11.0607C33.7911 11.4778 34.5828 12.5905 34.5828 13.8343V40.0835C34.5828 41.692 33.2749 43.0001 31.6664 43.0001ZM22.9167 10.1887C22.5156 10.1887 22.1874 10.5168 22.1874 10.9179V37.1671C22.1874 37.4776 22.396 37.7663 22.6934 37.8699L31.4285 40.7807C31.4912 40.8009 31.5729 40.8127 31.6664 40.8127C32.0675 40.8127 32.3954 40.4845 32.3954 40.0835V13.8343C32.3954 13.5237 32.1868 13.2351 31.8894 13.1315L23.1543 10.2207C23.0916 10.2004 23.0099 10.1887 22.9167 10.1887Z" fill="white"/>
<path d="M42.2388 19.6675C41.6351 19.6675 41.1451 19.1775 41.1451 18.5738V12.0115C41.1451 11.0067 40.3273 10.1885 39.3225 10.1885H22.9167C22.313 10.1885 21.823 9.69855 21.823 9.09481C21.823 8.49108 22.313 8.0011 22.9167 8.0011H39.3225C41.5347 8.0011 43.3326 9.79921 43.3326 12.0115V18.5738C43.3326 19.1775 42.8426 19.6675 42.2388 19.6675Z" fill="white"/>
<path d="M39.3223 38.6251H33.489C32.8852 38.6251 32.3953 38.1351 32.3953 37.5314C32.3953 36.9277 32.8852 36.4377 33.489 36.4377H39.3223C40.3271 36.4377 41.145 35.6195 41.145 34.6148V28.0525C41.145 27.4487 41.635 26.9587 42.2387 26.9587C42.8424 26.9587 43.3324 27.4487 43.3324 28.0525V34.6148C43.3324 36.827 41.5346 38.6251 39.3223 38.6251Z" fill="white"/>
</g>
<defs>
<clipPath id="clip0_5981_824">
<rect width="35" height="35" fill="white" transform="translate(20 8)"/>
</clipPath>
</defs>
</svg>
