<svg width="46" height="46" viewBox="0 0 46 46" fill="none" xmlns="http://www.w3.org/2000/svg">
<path d="M23.282 0.875001C18.7213 0.874115 14.2701 2.26282 10.5297 4.85357C6.78922 7.44433 3.93967 11.1123 2.36586 15.3622C0.792042 19.6121 0.56978 24.2391 1.72909 28.6184C2.88839 32.9976 5.37342 36.9182 8.84856 39.8506C8.8648 39.8656 8.88104 39.8799 8.89804 39.8938C8.94714 39.935 8.99322 39.9793 9.04308 40.0201C13.044 43.3198 18.0815 45.1261 23.2828 45.1261C28.4841 45.1261 33.5215 43.3198 37.5225 40.0201C37.5765 39.9759 37.6263 39.9279 37.6796 39.8833C37.7 39.866 37.72 39.8499 37.7389 39.8315C41.2086 36.8963 43.688 32.975 44.8425 28.5968C45.997 24.2186 45.771 19.5942 44.195 15.3475C42.6191 11.1008 39.769 7.43626 36.0294 4.8483C32.2897 2.26035 27.8405 0.873539 23.282 0.875001ZM35.8337 38.4781C32.2781 41.3233 27.8488 42.8748 23.282 42.8748C18.7153 42.8748 14.286 41.3233 10.7303 38.4781C10.7303 38.4433 10.7269 38.4091 10.7269 38.3746C10.7269 32.378 16.359 27.4996 23.282 27.4996C30.2051 27.4996 35.8371 32.378 35.8371 38.3746C35.8371 38.4095 35.8341 38.4436 35.8337 38.4781ZM16.1055 18.125C16.1055 16.7158 16.5264 15.3383 17.315 14.1666C18.1035 12.9949 19.2244 12.0816 20.5357 11.5424C21.847 11.0031 23.29 10.862 24.6821 11.1369C26.0742 11.4118 27.3529 12.0904 28.3566 13.0869C29.3602 14.0833 30.0437 15.3529 30.3206 16.735C30.5975 18.1171 30.4554 19.5497 29.9123 20.8516C29.3691 22.1535 28.4492 23.2663 27.2691 24.0492C26.0889 24.8321 24.7014 25.25 23.282 25.25C21.3793 25.2479 19.5552 24.4966 18.2098 23.1608C16.8644 21.8251 16.1076 20.014 16.1055 18.125ZM37.9519 36.5158C37.1723 31.6693 33.3941 27.6658 28.3377 26.0371C30.0651 24.95 31.3903 23.3354 32.1139 21.4362C32.8376 19.537 32.9206 17.4558 32.3505 15.5057C31.7804 13.5557 30.588 11.8421 28.9526 10.6227C27.3172 9.40329 25.3273 8.74401 23.282 8.74401C21.2368 8.74401 19.2468 9.40329 17.6114 10.6227C15.976 11.8421 14.7836 13.5557 14.2135 15.5057C13.6434 17.4558 13.7264 19.537 14.4501 21.4362C15.1738 23.3354 16.499 24.95 18.2264 26.0371C13.17 27.6669 9.39171 31.6693 8.61211 36.5158C5.96103 33.6811 4.20074 30.1399 3.54708 26.3266C2.89343 22.5132 3.37483 18.5933 4.93225 15.0475C6.48967 11.5018 9.05541 8.48434 12.3149 6.36515C15.5743 4.24597 19.3858 3.11717 23.282 3.11717C27.1782 3.11717 30.9897 4.24597 34.2492 6.36515C37.5086 8.48434 40.0744 11.5018 41.6318 15.0475C43.1892 18.5933 43.6706 22.5132 43.017 26.3266C42.3633 30.1399 40.603 33.6811 37.9519 36.5158Z" fill="white" stroke="white" stroke-width="0.5"/>
</svg>
